<svg width="34" height="34" viewBox="0 0 34 34" fill="none" xmlns="http://www.w3.org/2000/svg">
<path d="M34 17C34 26.3888 26.3888 34 17 34C7.61116 34 0 26.3888 0 17C0 7.61116 7.61116 0 17 0C26.3888 0 34 7.61116 34 17Z" fill="#59504B"/>
<path d="M17 17C19.0259 17 20.6667 15.3592 20.6667 13.3333C20.6667 11.3075 19.0259 9.66667 17 9.66667C14.9742 9.66667 13.3334 11.3075 13.3334 13.3333C13.3334 15.3592 14.9742 17 17 17ZM17 18.8333C14.5525 18.8333 9.66671 20.0617 9.66671 22.5V24.3333H24.3334V22.5C24.3334 20.0617 19.4475 18.8333 17 18.8333Z" fill="#F9E9E5"/>
</svg>
